<svg width="411" height="412" viewBox="0 0 411 412" fill="none" xmlns="http://www.w3.org/2000/svg">
    <path
        d="M354.145 261.002C377.435 261.002 382.778 296.365 374.352 341.685L38.0858 341.067C31.007 322.482 18.4043 273.179 37.0583 268.761C49.5253 265.809 58.4138 256.127 53.7038 246.719C-11.4397 116.596 103.503 18.4027 164.468 81.5074C177.676 68.7051 183.374 72.1138 192.759 83.018C214.734 68.7546 228.653 101.283 238.859 126.278L271.671 124.218C281.94 114.672 290.167 113.558 295.783 122.707C353.46 61.182 395.45 186.567 344.418 233.81C357.086 232.334 365.672 250.751 354.145 261.002Z"
        fill="url(#paint0_linear_6879_63491)" />
    <path
        d="M245.074 341.548H375.852L374.737 337.825C374.35 333.629 372.168 331.232 370.452 329.345C369.445 328.236 368.597 327.305 368.367 326.289C366.86 319.628 363.777 316.264 359.393 316.264L332.61 239.975C326.834 222.683 322.814 214.362 317.745 209.899C315.485 207.909 310.757 207.373 307.059 207.77C301.211 208.208 299.171 216.187 296.54 226.472V226.474C295.01 232.459 293.28 239.226 290.482 245.743C283.503 238.538 280.758 239.016 276.51 239.757C276.092 239.829 275.659 239.905 275.207 239.975C268.961 239.975 268.406 241.839 267.618 244.482C267.014 246.506 266.274 248.989 262.74 251.442C257.806 254.866 256.762 263.957 255.284 276.827V276.828C254.095 287.19 252.624 300.001 248.615 314.272C247.548 323.084 246.413 332.288 245.074 341.548ZM214.427 341.548H60.2798C61.9224 339.071 64.1076 337.825 66.7763 337.825L93.5598 261.536C99.3357 244.245 103.355 235.924 108.424 231.46C110.685 229.47 115.413 228.935 119.11 229.332C120.423 229.43 121.542 229.908 122.52 230.706L124.522 225.006C130.298 207.714 134.317 199.393 139.386 194.93C141.647 192.94 146.375 192.404 150.072 192.801C155.921 193.239 157.961 201.218 160.591 211.503C162.121 217.489 163.852 224.257 166.649 230.774C173.628 223.569 176.374 224.047 180.622 224.787C181.04 224.86 181.471 224.936 181.925 225.006C188.171 225.006 188.726 226.869 189.513 229.513C190.117 231.537 190.857 234.02 194.392 236.473C199.325 239.897 200.369 248.988 201.846 261.858C203.037 272.221 204.508 285.031 208.517 299.303C210.158 312.863 211.961 327.356 214.427 341.548Z"
        fill="#EDD5BE" />
    <path
        d="M73.3635 375.126C70.6235 374.577 72.4908 365.051 72.61 354.938L91.242 355.419V361.805C95.1479 364.376 95.7274 366.683 95.352 371.555C95.4561 376.914 79.5285 376.362 73.3635 375.126ZM110.422 377.049C107.312 377.049 109.142 368.678 108.984 361.393L126.725 359.539L127.479 362.354C130.15 363.796 132.312 363.064 134.123 364.139C136.741 365.693 138.295 368.259 139.672 370.8C142.109 375.298 112.751 377.049 110.422 377.049Z"
        fill="#FECB72" />
    <path
        d="M122.752 269.379C122.723 257.203 121.961 251.063 118.505 242.05L70.9658 246.101C69.578 256.874 70.2356 261.613 73.9113 267.8C72.7879 271.567 75.3498 302.339 72.5413 311.266C70.6398 317.309 68.9793 337.977 70.0068 341.205C71.0069 344.344 66.9243 351.032 70.4863 354.045C77.0623 359.607 90.8309 360.151 95.4204 353.633C97.0644 351.299 94.6669 349.857 95.6944 347.728C96.9534 345.119 98.5111 321.495 98.9139 305.155L100.558 319.643C103.503 330.149 101.555 338.804 102.681 341.205C103.823 344.28 104.234 345.256 103.024 348.003C101.598 351.24 103.572 353.084 102.407 355.899C99.8797 362.011 124.244 369.976 129.807 355.899C131.246 352.26 128.439 350.475 129.191 348.689C130.694 345.12 129.67 342.509 128.711 341.548C128.525 310.362 126.888 295.026 122.752 269.379Z"
        fill="#A17751" />
    <path
        d="M55.5534 215.27C53.1285 213.257 55.2862 209.345 56.7179 204.283L68.7054 212.592L61.4444 221.313L55.5534 215.27ZM133.369 164.663L136.726 177.229C141.235 175.759 144.357 175.03 146.864 173.246L180.292 151.822C183.287 150.696 185.018 149.831 186.457 148.251C187.495 147.111 191.252 146.123 190.772 143.376C190.43 141.11 188.443 139.187 189.128 138.02C190.055 136.441 194.06 133.763 191.594 133.282C189.813 133.282 185.543 137.159 182.21 140.08C179.059 139.393 179.401 140.767 178.442 144.887C163.63 151.286 155.299 155.019 140.219 162.946L133.369 164.663ZM114.258 146.741C115.185 144.402 115.198 143.237 115.08 141.247L107.887 146.466C104.286 153.97 106.191 158.208 108.983 165.761C113.784 161.339 114.943 154.5 114.258 146.741Z"
        fill="#FEAD98" />
    <path
        d="M108.504 153.882C107.3 151.92 107.427 150.41 107.682 147.702L87.9541 150.037C87.9897 151.874 88.2925 152.776 89.1871 154.225L108.093 155.393L108.504 153.882Z"
        fill="#242424" />
    <path
        d="M133.232 164.731C131.41 162.659 125.382 164.742 117.203 166.791L64.3899 186.224L54.5259 201.537C57.8248 207.185 60.2196 208.515 64.5954 210.532L70.3494 246.307C81.7752 257.214 110.216 254.547 118.71 243.629C120.697 241.076 120.48 240.429 118.984 237.106C120.386 234.475 119.668 233.43 118.231 231.613C118.364 221.456 118.054 216.292 116.244 208.815L117.34 190.687L134.945 181.761C139.633 170.59 138.385 167.597 133.232 164.731Z"
        fill="#FECB72" />
    <path
        d="M109.737 166.105C111.992 163.861 119.121 164.937 117.409 166.791C116.42 167.861 107.408 178.327 107.408 180.044C107.653 190.767 107.145 197.367 105.764 209.571C105.295 212.463 105.577 213.441 106.243 214.995L113.71 209.777C116.542 208.129 116.462 211.356 116.861 213.485C119.408 227.063 109.668 236.213 102.065 242.805C96.9163 247.269 86.1043 246.582 71.8563 246.582C67.6093 246.857 63.4308 243.708 61.5813 241.363C59.2523 238.411 60.4853 224.746 61.3073 219.047C61.7183 216.197 63.1527 215.443 65.1433 213.416C63.5678 207.785 62.1978 185.4 65.4858 179.014C60.5318 176.053 63.7733 173.727 68.0203 170.293L105.216 168.92L107.339 167.409L109.737 166.105ZM89.5978 123.6C86.5249 125.156 86.0358 133.213 85.3508 141.591C82.6793 140.835 83.7753 145.436 85.0768 148.251C86.2824 150.861 91.3884 151.182 95.2833 151.891C103.39 153.367 113.436 143.019 116.518 140.217C118.625 138.303 118.401 137.037 117.066 134.655C117.216 129.93 116.003 129.444 112.956 130.055C106.791 120.853 97.0643 117.969 94.7353 120.579C93.1598 122.433 90.8308 122.975 89.5978 123.6Z"
        fill="#FB6248" />
    <path
        d="M329.485 272.95C336.916 285.656 333.321 299.181 347.021 326.716C354.355 351.505 335.602 346.455 317.292 349.994L179.059 353.359L167.825 318.339L193.239 233.535C193.855 226.875 198.987 224.746 199.609 221.999C201.116 215.339 204.199 211.974 208.583 211.974L235.366 135.685C241.142 118.394 245.162 110.073 250.231 105.609C252.491 103.619 257.219 103.084 260.917 103.481C270.17 104.174 269.89 123.737 277.494 141.453C285.16 133.54 287.718 134.896 292.769 135.685C303.798 135.685 297.085 141.496 305.236 147.153C314.141 153.333 310.374 177.984 319.361 209.983C321.816 230.261 324.633 252.627 329.485 272.95Z"
        fill="url(#paint1_linear_6879_63491)" />
    <path
        d="M256.19 71.8253C256.19 71.4463 256.497 71.1387 256.875 71.1387H257.697C258.075 71.1387 258.382 71.4463 258.382 71.8253V103.412C258.382 103.791 258.075 104.099 257.697 104.099H256.875C256.497 104.099 256.19 103.791 256.19 103.412V71.8253Z"
        fill="#A17751" />
    <path
        d="M276.877 72.8553C270.986 71.2073 269 64.478 257.492 72.8553L258.177 93.318C263.725 89.5413 265.164 92.244 270.575 94.4853C287.152 101.352 286.604 89.4726 293.317 85.2153C287.726 86.0888 285.621 85.3623 282.631 83.1553C288.728 78.9666 290.44 66.608 289.139 67.9113C283.919 73.1382 282.768 74.5033 276.877 72.8553Z"
        fill="#FB6248" />
    <path
        d="M354.5 344.058C361.761 343.166 360.133 346.621 353.061 349.964H312.509C304.906 341.243 317.373 346.599 316.003 340.694C315.592 338.922 321.062 342.479 320.318 339.183C313.742 310.068 330.388 304.712 329.36 331.424C333.598 321.585 334.535 324.405 335.936 331.012C339.156 328.402 340.457 330.462 341.279 334.651C354.911 302.446 370.186 318.926 354.02 337.878C360.185 335.132 358.61 340.694 354.5 344.058ZM186.538 349.002C190.1 345.981 190.031 349.758 188.593 353.191L158.727 353.809C138.656 342.204 145.712 334.17 157.22 344.333C150.986 332.454 158.11 334.376 163.864 340.556C154.754 310.549 178.592 310.892 173.934 340.144C178.648 334.871 178.907 336.574 178.181 341.93C182.158 336.715 183.318 340.007 182.222 343.166C186.88 338.977 190.785 342.41 186.538 349.002Z"
        fill="#698F4B" />
    <path
        d="M278.179 140.757V140.767C278.183 140.76 278.187 140.753 278.191 140.745C284.661 134.282 287.363 134.753 291.466 135.467C291.884 135.54 292.317 135.615 292.769 135.685C299.015 135.685 299.57 137.549 300.359 140.193C300.962 142.217 301.701 144.7 305.236 147.153C310.169 150.576 311.213 159.668 312.692 172.537C313.881 182.899 315.352 195.711 319.361 209.983C319.842 213.95 320.335 217.997 320.855 222.093C319.009 216.529 315.84 205.72 314.073 198.653C313.388 195.46 312.789 192.243 312.208 189.131C310.524 180.103 309.005 171.958 306.058 167.821C304.15 165.143 303.162 162.777 302.839 161.435C302.359 159.444 300.647 159.787 299.345 162.877C299.171 163.289 299.101 164.06 299.14 164.594C301.134 192.397 301.153 239.817 298.797 231.063C296.591 218.464 296.264 204.867 295.995 193.738C295.738 183.091 295.535 174.702 293.797 171.598C292.139 168.641 291.263 163.564 290.519 159.249C289.5 153.344 288.728 148.865 286.536 153.195C282.982 160.212 280.81 175.014 279.58 183.4C278.884 188.147 278.488 190.837 278.316 188.902C278.555 184.101 279.183 178.261 279.775 172.758C280.98 161.531 282.035 151.709 279.343 154.981C274.884 165.801 271.397 172.147 265.027 180.113C263.246 182.35 262.208 185.005 261.169 187.659C259.897 190.911 258.624 194.166 255.985 196.661C257.552 192.848 258.664 189.509 259.7 186.405C261.833 180.012 263.633 174.614 268.383 168.096C270.306 165.456 271.607 161.703 272.66 157.796C271.681 157.944 270.734 152.16 269.519 144.737C269.165 142.578 268.789 140.282 268.383 137.951C267.893 135.136 265.575 134.999 265.369 138.775C265.373 141.312 265.469 144.203 265.559 146.919C265.768 153.182 265.946 158.514 264.89 156.423C263.957 151.556 263.363 145.082 262.806 138.983C261.659 126.462 260.658 115.525 257.149 123.325C256.143 124.41 253.627 123.29 251.432 122.313C250.914 122.083 250.414 121.86 249.957 121.677C247.821 120.82 247.203 125.174 246.426 130.653C245.957 133.959 245.43 137.674 244.477 140.904C244.261 141.635 243.978 142.976 243.628 144.64C242.498 150.009 240.665 158.722 238.106 160.955C236.878 162.089 237.747 159.006 238.907 154.891V154.89C239.387 153.191 239.916 151.315 240.367 149.487C241.298 145.711 241.874 141.508 241.326 140.08C240.875 138.904 240.72 137.167 240.593 135.742C240.431 133.919 240.313 132.608 239.682 133.625C234.171 142.221 230.076 154.142 226.979 163.16C224.47 170.46 222.617 175.858 221.193 176.054L235.366 135.685C241.142 118.394 245.162 110.073 250.231 105.609C252.491 103.619 257.219 103.084 260.917 103.481C266.765 103.919 268.805 111.898 271.435 122.183C272.966 128.169 274.696 134.936 277.494 141.453C277.726 141.213 277.954 140.981 278.179 140.757Z"
        fill="url(#paint2_linear_6879_63491)" />
    <path
        d="M179.882 278.104L193.238 233.535C193.628 229.338 195.807 226.942 197.524 225.055C198.532 223.947 199.379 223.016 199.609 221.999C201.116 215.339 204.198 211.974 208.582 211.974L208.587 211.96L208.651 211.974C211.355 211.47 211.733 211.837 213.103 214.446C214.039 216.392 216.337 220.653 218.035 222.137C219.734 223.62 223.31 230.4 224.885 233.604C230.913 240.951 234.347 247.911 236.804 258.049C234.9 257.584 233.855 256.975 232.009 255.371C232.794 263.522 234.892 272.288 236.173 277.647C237.126 281.631 237.628 283.731 236.804 282.289C236.428 281.455 236.05 280.619 235.669 279.78C229.391 265.906 222.887 251.533 222.145 245.964C221.734 242.874 219.693 238.375 217.419 237.999C216.265 237.808 215.811 235.731 215.257 233.206C215.12 232.581 214.978 231.927 214.816 231.269C214.379 229.484 210.143 228.126 209.267 231.819C208.408 235.444 208.758 245.979 209.073 255.461C209.432 266.269 209.746 275.709 208.171 271.989C207.829 271.18 207.336 267.395 206.719 262.66C205.401 252.529 203.515 238.045 201.321 239.029C200.968 239.187 200.605 239.509 200.247 239.827C199.149 240.802 198.088 241.744 197.417 237.861L179.882 278.104Z"
        fill="url(#paint3_linear_6879_63491)" />
    <path
        d="M221.95 352.315C235.67 348.264 239.03 337.166 215.912 335.368L215.685 335.35C207.648 334.727 194.55 333.709 197.76 324.313L204.199 315.18C205.529 313.403 214.107 313.344 224.034 313.275C234.05 313.207 245.44 313.128 252.149 311.266C254.405 310.64 255.667 308.596 257.011 306.42C259.297 302.714 261.822 298.626 269.89 300.485C271.397 300.833 269.89 297.739 267.561 296.571C264.068 294.82 259.821 288.469 271.603 285.928C274.525 285.136 277.357 284.498 280.017 283.9C289.367 281.794 296.62 280.161 298.386 273.911C301.332 267.251 304.114 259.41 296.605 259.285C293.942 259.241 290.289 259.896 286.519 260.572C276.425 262.384 265.483 264.347 270.37 253.449C272.525 248.642 271.689 245.622 257.286 245.895C251.738 246.001 243.096 243.96 237.079 239.303L240.298 232.643C242.84 236.432 252.08 239.853 257.286 239.853C279.336 239.853 278.425 244.099 277.151 250.043C276.905 251.19 276.646 252.399 276.535 253.655C276.239 257.002 278.444 256.481 283.182 255.364H283.185C284.352 255.09 285.675 254.778 287.152 254.479C293.523 253.189 310.305 252.693 307.223 266.152C307.106 266.662 306.994 267.163 306.883 267.656L306.882 267.661C304.564 277.938 303.029 284.74 291.81 288.537C288.961 289.501 285.462 290.097 282.228 290.647C275.744 291.75 270.33 292.671 273.384 296.022C278.825 301.996 281.604 309.206 277.425 308.519C276.826 308.42 276.055 308.146 275.162 307.827V307.826H275.161C271.252 306.431 265.017 304.204 260.78 312.365C256.596 318.495 248.717 319.123 230.64 318.201C227.931 318.374 225.431 318.46 223.084 318.539C217.047 318.744 212.031 318.916 207.144 320.467C204.943 322.827 204.336 327.128 206.733 327.883C210.706 329.134 220.57 330.432 225.502 331.042C248.689 333.905 249.194 343.94 237.577 351.935L221.95 352.315Z"
        fill="url(#paint4_linear_6879_63491)" />
    <path
        d="M241.189 230.102L244.614 223.235C243.316 219.471 239.132 217.249 235.925 215.545C234.393 214.73 233.085 214.035 232.421 213.347C228.79 209.587 230.982 205.451 234.339 200.919L242.353 194.395C253.108 186.911 256.533 176.267 253.861 171.461C253.271 170.398 252.499 169.42 251.751 168.474C249.507 165.631 247.48 163.061 251.19 159.238C258.519 151.685 257.834 137.402 257.149 131.428C256.378 124.699 256.297 112.196 261.465 104.167L257.149 104.442C252.286 110.759 252.034 118.302 252.56 131.428C252.56 133.341 252.624 135.158 252.686 136.89C252.942 144.045 253.145 149.755 248.518 154.912C248.361 155.088 248.2 155.264 248.04 155.441C244.431 159.425 240.32 163.961 248.518 174.413C252.503 179.495 245.248 186.289 239.545 190.207L239.365 190.34C231.282 196.332 223.795 201.881 224.475 211.287C224.688 214.24 230.023 217.467 236.188 220.077C239.408 221.439 241.189 226.875 241.189 230.102Z"
        fill="url(#paint5_linear_6879_63491)" />
    <path
        d="M115.354 258.049C111.011 260.903 106.106 261.551 100.01 260.59C101.909 267.521 101.915 276.177 105.079 276.177C106.586 276.177 111.038 276.177 114.395 275.765C118.534 275.257 116.409 266.343 115.354 258.049Z"
        fill="#836041" />
    <path fill-rule="evenodd" clip-rule="evenodd"
        d="M88.6745 266.026C87.0936 265.031 86.0373 263.913 84.8015 262.487L85.2153 262.127C86.4428 263.544 87.4566 264.611 88.9663 265.56C90.4802 266.512 92.5078 267.354 95.7698 268.292L95.9177 268.334L95.9588 268.482C96.4 270.087 96.7945 271.941 97.1452 274.002C98.5509 282.245 99.2975 293.841 99.7359 306.038L99.1879 306.057C98.7618 294.201 98.0453 282.94 96.7205 274.785C95.0478 277.096 92.1009 278.517 89.7829 279.212C88.5252 279.59 87.4155 279.764 86.7552 279.74C86.5894 279.734 86.4373 279.715 86.3113 279.677C86.2003 279.642 86.0373 279.568 85.9674 279.399C85.888 279.207 85.9797 279.035 86.0619 278.934C86.1483 278.826 86.2784 278.723 86.4373 278.623C89.5965 276.613 91.5461 275.058 92.8544 273.521C94.0984 272.059 94.7751 270.6 95.3505 268.742C92.2215 267.829 90.2089 266.99 88.6745 266.026ZM95.6684 269.537C95.1163 271.155 94.4299 272.516 93.2709 273.877C91.9077 275.478 89.9034 277.067 86.7305 279.087C86.6784 279.12 86.6346 279.151 86.6004 279.178C86.6483 279.184 86.7072 279.189 86.7743 279.192C87.3484 279.212 88.3923 279.056 89.6239 278.686C92.0653 277.954 95.1053 276.43 96.5877 273.995C96.3082 272.366 96.0027 270.873 95.6684 269.537ZM86.4346 279.135C86.4346 279.135 86.436 279.135 86.4373 279.137C86.4346 279.137 86.4346 279.135 86.4346 279.135ZM86.477 279.295C86.477 279.296 86.4757 279.296 86.4757 279.296L86.477 279.295ZM81.2395 317.379C85.1386 316.769 87.4374 315.77 91.172 313.634L90.9008 313.156C86.925 315.431 84.6358 316.382 80.2463 316.968L79.2928 317.096L80.1709 317.49C83.211 318.86 85.0865 320.022 86.0496 320.883C86.5401 321.322 86.7552 321.648 86.8059 321.853C86.8291 321.945 86.8141 321.993 86.7976 322.021C86.7785 322.052 86.7332 322.1 86.6236 322.143C86.3948 322.231 85.9866 322.258 85.3961 322.174C84.8152 322.093 84.0891 321.908 83.2466 321.607C81.5615 321.003 79.4298 319.937 77.083 318.318L76.772 318.771C79.1517 320.414 81.3258 321.503 83.0616 322.124C83.9288 322.435 84.6919 322.63 85.3194 322.72C85.9373 322.806 86.4579 322.794 86.8195 322.655C87.0045 322.584 87.1703 322.47 87.2703 322.297C87.373 322.119 87.3854 321.919 87.336 321.721C87.2429 321.345 86.9182 320.925 86.4127 320.474C85.4838 319.643 83.8124 318.591 81.2395 317.379ZM113.008 318.296C114.141 318.216 115.236 317.94 116.635 317.461L116.812 317.98C115.392 318.466 114.247 318.76 113.045 318.844C111.844 318.928 110.604 318.801 108.996 318.47L109.107 317.932C110.689 318.259 111.875 318.376 113.008 318.296ZM109.552 322.617C107.311 321.636 105.091 320.065 103.96 318.352L104.417 318.05C105.468 319.641 107.582 321.155 109.771 322.113C110.862 322.589 111.956 322.921 112.929 323.055C113.909 323.189 114.729 323.119 115.299 322.831L115.546 323.322C114.832 323.682 113.881 323.74 112.854 323.598C111.821 323.457 110.677 323.108 109.552 322.617ZM107.93 350.867C107.653 350.987 107.615 351.083 107.611 351.121C107.585 351.378 107.711 351.608 108.083 351.823C108.464 352.043 109.049 352.211 109.796 352.329C111.281 352.565 113.296 352.59 115.309 352.546C116.479 352.52 117.623 352.47 118.658 352.426C119.419 352.395 120.12 352.364 120.734 352.348C121.444 352.329 122.029 352.327 122.407 352.366C122.503 352.375 122.59 352.389 122.667 352.406C122.74 352.422 122.82 352.447 122.89 352.488C122.957 352.529 123.068 352.621 123.074 352.783C123.078 352.927 122.993 353.026 122.944 353.074C117.762 358.128 111.282 357.339 107.352 353.416L107.738 353.026C111.407 356.688 117.408 357.49 122.322 352.91C121.982 352.878 121.442 352.878 120.75 352.897C120.165 352.912 119.467 352.942 118.705 352.974C117.653 353.019 116.481 353.069 115.322 353.095C113.309 353.139 111.251 353.116 109.712 352.871C108.946 352.75 108.282 352.57 107.812 352.3C107.335 352.025 107.009 351.621 107.067 351.064C107.104 350.707 107.407 350.497 107.712 350.363C108.034 350.223 108.474 350.119 108.981 350.03C109.492 349.939 110.093 349.858 110.749 349.771L110.853 349.758C111.482 349.674 112.163 349.585 112.873 349.473C115.884 349.001 119.335 348.152 121.457 345.892L121.856 346.268C119.594 348.677 115.968 349.545 112.958 350.016C112.241 350.129 111.555 350.219 110.926 350.302L110.821 350.317C110.162 350.403 109.573 350.481 109.077 350.571C108.577 350.659 108.19 350.755 107.93 350.867Z"
        fill="#836041" />
    <path
        d="M101.996 152.577C88.6622 154.162 81.0052 154.523 65.5544 154.981C62.3349 155.075 60.5004 161.985 62.7459 165.624C66.5449 171.782 71.3056 171.06 78.4324 170.225C89.5992 170.273 103.229 170.594 105.558 169.057C113.778 163.633 109.504 151.685 101.996 152.577Z"
        fill="#59534D" />
    <path
        d="M94.7765 170.245C90.5213 162.947 89.9966 158.209 93.9258 153.455C92.8764 153.556 91.8489 153.65 90.8351 153.738C87.8786 158.679 87.88 164.664 91.7803 170.28C92.8078 170.274 93.8107 170.263 94.7765 170.245ZM74.2854 170.67C70.2878 163.817 69.5768 159.221 72.7483 154.751C71.8414 154.783 70.9084 154.814 69.9439 154.846C67.3875 159.651 67.5629 165.348 71.292 170.705H73.8032C73.9635 170.694 74.1238 170.682 74.2854 170.67Z"
        fill="#3C3732" />
    <path
        d="M104.32 169.519C101.066 168.615 98.6401 165.093 98.6401 160.886C98.6401 157.063 100.644 153.805 103.453 152.564C110.019 153.249 113.231 163.994 105.559 169.057C105.29 169.234 104.87 169.387 104.32 169.519Z"
        fill="#3B3732" />
    <path fill-rule="evenodd" clip-rule="evenodd"
        d="M106.197 154.551C106.668 154.787 107.148 155.24 107.631 155.92L107.185 156.239C106.727 155.597 106.311 155.222 105.95 155.043C105.601 154.867 105.304 154.871 105.042 154.99C104.767 155.115 104.499 155.382 104.257 155.79C104.017 156.195 103.816 156.721 103.667 157.329C103.367 158.547 103.283 160.062 103.479 161.527C103.676 162.996 104.152 164.388 104.949 165.384C105.297 165.818 105.598 166.106 105.852 166.278C106.107 166.449 106.29 166.489 106.415 166.473C106.533 166.458 106.653 166.388 106.772 166.217C106.894 166.043 107.001 165.782 107.083 165.432C107.413 164.024 107.274 161.515 106.728 158.952C106.593 158.312 106.365 157.933 106.163 157.762C106.064 157.679 105.983 157.653 105.926 157.652C105.872 157.65 105.812 157.668 105.745 157.732C105.6 157.867 105.443 158.203 105.427 158.815C105.412 159.414 105.534 160.235 105.886 161.279L105.367 161.455C105 160.37 104.861 159.483 104.879 158.801C104.897 158.131 105.065 157.613 105.371 157.329C105.53 157.181 105.726 157.097 105.939 157.103C106.149 157.108 106.346 157.2 106.515 157.343C106.848 157.624 107.113 158.138 107.263 158.837C107.814 161.424 107.974 164.031 107.615 165.558C107.524 165.943 107.397 166.279 107.22 166.533C107.041 166.79 106.797 166.978 106.483 167.018C106.178 167.056 105.86 166.947 105.545 166.734C105.228 166.519 104.887 166.186 104.52 165.727C103.639 164.628 103.139 163.127 102.934 161.6C102.728 160.072 102.814 158.487 103.132 157.199C103.291 156.553 103.509 155.974 103.784 155.509C104.057 155.048 104.399 154.679 104.815 154.49C105.243 154.295 105.715 154.309 106.197 154.551Z"
        fill="#1C1916" />
    <path
        d="M87.4058 187.323C87.4058 186.944 87.7126 186.636 88.0908 186.636H89.4608C89.8389 186.636 90.1458 186.944 90.1458 187.323V207.236C90.1458 207.615 89.8389 207.923 89.4608 207.923H88.0908C87.7126 207.923 87.4058 207.615 87.4058 207.236V187.323Z"
        fill="#BB3F2A" />
    <path fill-rule="evenodd" clip-rule="evenodd"
        d="M108.697 168.086C109.422 167.823 110.144 167.846 110.962 168.034C111.145 168.077 111.329 168.171 111.415 168.365C111.497 168.549 111.458 168.744 111.396 168.898C111.275 169.206 110.982 169.576 110.634 169.964C110.304 170.333 109.896 170.748 109.468 171.18C109.435 171.215 109.401 171.248 109.368 171.282C108.928 171.728 108.471 172.195 108.05 172.662C108.061 173.338 107.99 174.11 107.883 174.996L107.339 174.93C107.452 174 107.519 173.227 107.5 172.568C107.468 171.485 107.204 170.738 106.536 170.13C106.242 169.861 105.86 169.611 105.369 169.373L105.608 168.879C106.032 169.083 106.394 169.303 106.698 169.546C107.401 168.8 108.035 168.328 108.697 168.086ZM107.104 169.917C107.63 170.475 107.896 171.127 108 171.908C108.324 171.562 108.659 171.222 108.981 170.896C109.013 170.863 109.045 170.83 109.078 170.797C109.508 170.361 109.908 169.955 110.229 169.597C110.582 169.203 110.808 168.899 110.888 168.696C110.91 168.641 110.914 168.61 110.914 168.596C110.903 168.589 110.881 168.579 110.838 168.57C110.081 168.395 109.474 168.387 108.883 168.603C108.335 168.803 107.772 169.208 107.104 169.917ZM110.925 168.603L110.922 168.6C110.925 168.601 110.925 168.603 110.925 168.603ZM103.821 171.625C104.024 171.275 104.207 170.965 104.384 170.741L104.814 171.082C104.666 171.27 104.503 171.543 104.297 171.9C104.27 171.945 104.244 171.991 104.217 172.037C104.031 172.36 103.817 172.732 103.562 173.133C102.977 174.053 102.177 175.134 100.996 176.174C98.6288 178.257 94.7613 180.146 88.099 180.319H88.0894L65.4748 179.357L65.4981 178.808L88.0935 179.769C94.6449 179.598 98.3795 177.745 100.635 175.761C101.765 174.765 102.532 173.729 103.099 172.838C103.347 172.447 103.555 172.085 103.742 171.763C103.769 171.716 103.795 171.671 103.821 171.625ZM86.7715 182.505C89.7964 182.251 92.4132 181.799 94.0174 181.162L94.2188 181.673C92.5351 182.34 89.8513 182.797 86.8167 183.053C83.7739 183.308 80.3517 183.362 77.1774 183.211C74.0058 183.06 71.0644 182.705 68.9916 182.136C67.9586 181.853 67.1134 181.509 66.564 181.093C66.2872 180.883 66.0694 180.644 65.9475 180.368C65.8228 180.087 65.8091 179.784 65.9105 179.477L66.4297 179.65C66.3695 179.831 66.3804 179.992 66.4475 180.147C66.5188 180.309 66.6613 180.479 66.8928 180.655C67.3586 181.007 68.1231 181.328 69.1355 181.607C71.1521 182.159 74.0469 182.512 77.2034 182.662C80.3558 182.811 83.7547 182.758 86.7715 182.505ZM97.6794 188.311C96.793 197.174 96.8629 202.361 97.1328 211.691L96.5848 211.708C96.3149 202.369 96.2437 197.154 97.1342 188.256L97.6794 188.311ZM85.7412 212.92C88.3484 213.121 91.124 213.334 94.1325 213.485L94.1051 214.034C91.087 213.881 88.3059 213.669 85.6988 213.468L85.67 213.465C83.0725 213.265 80.6503 213.079 78.335 212.979C73.6894 212.78 69.4876 212.933 65.2118 214.026L65.0762 213.493C69.4273 212.38 73.688 212.231 78.3583 212.431C80.6832 212.53 83.1122 212.717 85.7056 212.917L85.7412 212.92ZM97.9055 215.915L104.07 212.963L104.306 213.457L98.1411 216.41L97.9055 215.915ZM97.3602 228.138C97.2958 223.239 96.4862 218.618 95.7053 215.755L96.2341 215.609C97.0273 218.514 97.8452 223.183 97.9096 228.131C97.974 233.074 97.2876 238.331 95.0449 242.389L94.5654 242.123C96.7396 238.187 97.4232 233.042 97.3602 228.138ZM99.3056 218.753L103.347 215.937L103.659 216.388L99.618 219.203L99.3056 218.753ZM70.1287 217.022C78.3117 216.958 84.1918 216.911 92.1652 217.881L92.0994 218.427C84.163 217.462 78.3213 217.507 70.1397 217.572C68.571 217.585 66.9161 217.598 65.1447 217.605L65.1419 217.055C66.9092 217.048 68.5615 217.036 70.1287 217.022Z"
        fill="#BB3F2A" />
    <path fill-rule="evenodd" clip-rule="evenodd"
        d="M117.431 189.372C121.133 182.821 123.662 179.883 128.038 175.456L128.427 175.843C123.77 180.555 121.234 183.547 117.101 191.094L116.591 190.913L118.783 178.965L119.322 179.063L117.431 189.372Z"
        fill="#9F7429" />
    <path fill-rule="evenodd" clip-rule="evenodd"
        d="M108.838 149.253C108.937 148.868 109.101 148.503 109.37 148.305L109.693 148.747C109.584 148.828 109.459 149.036 109.369 149.388C109.281 149.729 109.237 150.155 109.244 150.607C109.258 151.524 109.478 152.458 109.881 152.954L109.456 153.3C108.937 152.661 108.711 151.573 108.696 150.615C108.689 150.126 108.736 149.649 108.838 149.253Z"
        fill="#C66C55" />
    <path fill-rule="evenodd" clip-rule="evenodd"
        d="M114.27 132.233C114.292 132.359 114.294 132.501 114.235 132.636C112.126 137.495 107.782 141.196 102.651 143.3C97.5194 145.406 91.575 145.925 86.2347 144.395C85.9073 144.302 85.6497 144.155 85.462 143.938C85.2744 143.722 85.1771 143.46 85.1237 143.171C85.0716 142.887 85.062 142.56 85.062 142.2C85.062 142.041 85.0648 141.871 85.0689 141.692C85.0689 141.669 85.0702 141.646 85.0702 141.622C85.073 141.418 85.0771 141.202 85.0771 140.973H85.6251C85.6251 141.206 85.6223 141.427 85.6182 141.632C85.6182 141.655 85.6169 141.679 85.6169 141.702C85.6141 141.88 85.6114 142.047 85.6114 142.202C85.61 142.557 85.621 142.842 85.6634 143.072C85.7045 143.302 85.7744 143.46 85.8758 143.578C85.9772 143.695 86.1306 143.795 86.3854 143.868C91.5942 145.359 97.4126 144.855 102.443 142.792C107.475 140.73 111.693 137.116 113.732 132.417C113.733 132.414 113.742 132.391 113.731 132.329C113.72 132.267 113.692 132.185 113.644 132.082C113.547 131.874 113.387 131.622 113.188 131.336C113.091 131.196 112.984 131.046 112.874 130.894C112.551 130.441 112.198 129.948 111.959 129.497L112.444 129.24C112.663 129.655 112.983 130.101 113.3 130.545C113.416 130.706 113.529 130.865 113.639 131.023C113.839 131.311 114.022 131.596 114.14 131.85C114.201 131.976 114.248 132.106 114.27 132.233Z"
        fill="#BA3F2A" />
    <path
        d="M242.627 195.219C242.627 198.595 239.898 201.331 236.53 201.331C233.163 201.331 230.434 198.595 230.434 195.219C230.434 191.844 233.163 189.108 236.53 189.108C239.898 189.108 242.627 191.844 242.627 195.219ZM308.113 268.967C308.113 272.343 305.384 275.079 302.016 275.079C298.649 275.079 295.92 272.343 295.92 268.967C295.92 265.592 298.649 262.856 302.016 262.856C305.384 262.856 308.113 265.592 308.113 268.967ZM208.24 320.33C208.24 323.706 205.511 326.441 202.143 326.441C198.776 326.441 196.047 323.706 196.047 320.33C196.047 316.954 198.776 314.219 202.143 314.219C205.511 314.219 208.24 316.954 208.24 320.33Z"
        fill="#FECB72" />
    <defs>
        <linearGradient id="paint0_linear_6879_63491" x1="287.781" y1="350.717" x2="68.7746"
            y2="69.339" gradientUnits="userSpaceOnUse">
            <stop stop-color="#FFE1C7" />
            <stop offset="1" stop-color="#FFE1C7" stop-opacity="0" />
        </linearGradient>
        <linearGradient id="paint1_linear_6879_63491" x1="258.238" y1="103.358" x2="258.238"
            y2="353.359" gradientUnits="userSpaceOnUse">
            <stop stop-color="#2B8353" />
            <stop offset="1" stop-color="#124027" />
        </linearGradient>
        <linearGradient id="paint2_linear_6879_63491" x1="233.175" y1="114.524" x2="337.637"
            y2="275.385" gradientUnits="userSpaceOnUse">
            <stop stop-color="#84994A" />
            <stop offset="1" stop-color="#84994A" stop-opacity="0" />
        </linearGradient>
        <linearGradient id="paint3_linear_6879_63491" x1="147.454" y1="170.19" x2="251.916"
            y2="331.052" gradientUnits="userSpaceOnUse">
            <stop stop-color="#84994A" />
            <stop offset="1" stop-color="#84994A" stop-opacity="0" />
        </linearGradient>
        <linearGradient id="paint4_linear_6879_63491" x1="280.272" y1="108.335" x2="240.828"
            y2="371.85" gradientUnits="userSpaceOnUse">
            <stop stop-color="#84994A" />
            <stop offset="1" stop-color="#84994A" stop-opacity="0" />
        </linearGradient>
        <linearGradient id="paint5_linear_6879_63491" x1="252.742" y1="104.214" x2="213.298"
            y2="367.729" gradientUnits="userSpaceOnUse">
            <stop stop-color="#84994A" />
            <stop offset="1" stop-color="#84994A" stop-opacity="0" />
        </linearGradient>
    </defs>
</svg>