<svg width="96" height="97" viewBox="0 0 96 97" fill="none" xmlns="http://www.w3.org/2000/svg">
    <rect x="0.216797" y="0.391785" width="95.7835" height="95.7835" rx="8" fill="#D6F3DB" />
    <g clip-path="url(#clip0_6686_59796)">
        <path
            d="M80.2912 35.4575V78.2919H16.1431V35.4575C16.1431 33.2575 17.9275 31.4731 20.129 31.4731H76.3055C78.5068 31.4731 80.2912 33.2575 80.2912 35.4575Z"
            fill="#DFEAEF" />
        <path d="M16.1431 71.9301H80.2912V78.2919H16.1431V71.9301Z" fill="#B4D0D5" />
        <path d="M75.3618 36.4023V69.5338H21.073V36.4023H75.3618Z" fill="#6EC17D" />
        <path
            d="M83.217 74.4634H13.2183V76.8046C13.2183 80.0047 15.8125 82.599 19.0127 82.599H77.4226C80.6228 82.599 83.217 80.0047 83.217 76.8046V74.4634Z"
            fill="#DFEAEF" />
        <path
            d="M52.0134 78.5312H44.4212C42.2406 78.5312 40.4727 76.7634 40.4727 74.5826V74.4634H55.9618V74.5826C55.9618 76.7634 54.194 78.5312 52.0134 78.5312Z"
            fill="#B4D0D5" />
        <path
            d="M25.3447 82.599H19.0124C15.8112 82.599 13.2168 80.0047 13.2168 76.8047V74.4639H19.5491V76.8047C19.5491 80.0047 22.1434 82.599 25.3447 82.599Z"
            fill="#B4D0D5" />
        <path
            d="M63.7874 35.4928V41.4433C63.7874 44.9968 61.6648 48.2235 58.3818 49.5869C51.8833 52.2883 44.5511 52.2883 38.0526 49.5869C34.7695 48.2235 32.647 44.9968 32.647 41.4433V35.4928H63.7874Z"
            fill="#665E66" />
        <path
            d="M52.2983 51.2972C47.5209 52.0408 42.5844 51.4719 38.0521 49.5873C34.769 48.224 32.6465 44.9973 32.6465 41.4438V35.4933H40.8083V41.4438C40.8083 44.9973 42.9309 48.224 46.2139 49.5873C48.1814 50.4056 50.2251 50.976 52.2983 51.2972Z"
            fill="#454045" />
        <path
            d="M63.7876 35.4928V37.8787L51.0428 44.6307C49.2752 45.5658 47.1597 45.5658 45.3922 44.6307L32.6475 37.8787V35.4928H63.7876Z"
            fill="#454045" />
        <path
            d="M71.4687 25.7074L51.0425 14.8867C49.2755 13.9505 47.1597 13.9505 45.3926 14.8867L24.9664 25.7074C22.6727 26.9224 22.6727 30.2085 24.9664 31.4235L45.3926 42.2444C47.1595 43.1805 49.2754 43.1805 51.0425 42.2444L71.4687 31.4235C73.7624 30.2085 73.7624 26.9226 71.4687 25.7074Z"
            fill="#665E66" />
        <path
            d="M57.3041 53.8135C56.8375 53.8135 56.4591 53.435 56.4591 52.9684V39.2453L47.5822 29.1226C47.2746 28.7717 47.3096 28.2378 47.6604 27.93C48.0111 27.6223 48.5452 27.6574 48.853 28.0082L57.9396 38.37C58.0747 38.5242 58.1493 38.7222 58.1493 38.9271V52.9683C58.1492 53.4352 57.7709 53.8135 57.3041 53.8135Z"
            fill="#EAB14D" />
        <path
            d="M56.1032 53.161L54.4105 56.0928C53.3662 57.9014 54.6715 60.1622 56.76 60.1622H57.8483C59.9367 60.1622 61.2419 57.9014 60.1978 56.0928L58.5051 53.161C57.9713 52.2365 56.637 52.2365 56.1032 53.161Z"
            fill="#F4DD45" />
        <path
            d="M47.4806 65.6612H26.3336C25.7503 65.6612 25.2773 65.1883 25.2773 64.6049C25.2773 64.0215 25.7503 63.5486 26.3336 63.5486H47.4805C48.0638 63.5486 48.5368 64.0215 48.5368 64.6049C48.5368 65.1883 48.064 65.6612 47.4806 65.6612Z"
            fill="#665E66" />
        <path
            d="M40.4728 61.2185H26.3336C25.7503 61.2185 25.2773 60.7456 25.2773 60.1622C25.2773 59.5788 25.7503 59.1059 26.3336 59.1059H40.4728C41.0562 59.1059 41.5291 59.5788 41.5291 60.1622C41.5291 60.7456 41.0562 61.2185 40.4728 61.2185Z"
            fill="#665E66" />
    </g>
    <defs>
        <clipPath id="clip0_6686_59796">
            <rect width="70" height="70" fill="white" transform="translate(13.2168 13.3918)" />
        </clipPath>
    </defs>
</svg>