<svg width="96" height="97" viewBox="0 0 96 97" fill="none" xmlns="http://www.w3.org/2000/svg">
    <rect x="0.216797" y="0.824829" width="95.7835" height="95.7835" rx="8" fill="#FBF4DA" />
    <g clip-path="url(#clip0_6686_59660)">
        <path
            d="M15.6306 56.0663H20.4581C21.7913 56.0663 22.8719 57.147 22.8719 58.4801V81.4111C22.8719 82.7442 21.7913 83.8248 20.4581 83.8248H15.6306C14.2974 83.8248 13.2168 82.7441 13.2168 81.4111V58.4801C13.2168 57.1469 14.2974 56.0663 15.6306 56.0663Z"
            fill="#FF5364" />
        <path
            d="M72.1858 68.4731L52.6944 80.349C51.5535 81.0462 50.2418 81.4137 48.9047 81.4111H22.8721V58.4801H25.6721C26.8246 58.4753 27.9689 58.6754 29.0513 59.0715C30.1078 59.437 31.0921 59.9842 31.9599 60.6888C32.8666 61.4224 33.8596 62.0425 34.9169 62.5353C35.9615 63.0213 37.096 63.2844 38.2479 63.3077H44.0289C46.0328 63.3213 47.8756 64.4085 48.8564 66.156C49.2312 66.7466 49.4204 67.4361 49.3995 68.1353C49.3293 69.0436 48.9201 69.8924 48.253 70.5128C48.3672 70.4918 48.4802 70.4636 48.5909 70.4283L52.0306 69.2818L61.2634 66.1921L69.8082 63.3318C70.9726 62.9479 72.2524 63.3453 72.9944 64.3215V64.3335C73.4761 64.9769 73.6629 65.7941 73.5089 66.5828C73.3549 67.3716 72.8742 68.0583 72.1858 68.4731Z"
            fill="#FDD7AD" />
        <path
            d="M69.941 48.8248C69.9487 55.6583 66.7325 62.095 61.2635 66.1921L48.591 70.4283C48.4803 70.4636 48.3673 70.4917 48.253 70.5128C49.5163 69.4162 49.7742 67.5545 48.8565 66.1558C47.8755 64.4083 46.0329 63.3211 44.029 63.3076H38.248C37.096 63.2842 35.9616 63.0211 34.9169 62.5351C33.8598 62.0424 32.8668 61.4222 31.96 60.6886C31.0921 59.9841 30.1077 59.4368 29.0514 59.0713C24.0084 49.6164 26.6054 37.897 35.1704 31.4576L47.8429 27.2213C47.9536 27.1861 48.0665 27.1579 48.1808 27.1368C46.9176 28.2335 46.6597 30.095 47.5774 31.4938C48.5583 33.2413 50.401 34.3285 52.4049 34.3421H58.1859C59.3379 34.3654 60.4723 34.6285 61.5169 35.1145C62.574 35.6073 63.567 36.2274 64.4739 36.961C65.3418 37.6656 66.3262 38.2128 67.3824 38.5783C69.0659 41.731 69.9448 45.2507 69.941 48.8248Z"
            fill="#FFE582" />
        <path
            d="M32.6478 56.5973C32.1634 56.5975 31.7257 56.3081 31.5363 55.8623C30.591 53.6367 30.1071 51.2427 30.1133 48.8248C30.1083 41.0436 35.0824 34.1318 42.4623 31.6651C42.8719 31.528 43.3237 31.6198 43.6471 31.906C43.9706 32.1921 44.117 32.6292 44.0309 33.0525C43.9448 33.4758 43.6395 33.821 43.2299 33.9581C36.8353 36.0948 32.5245 42.0825 32.5271 48.8247C32.5214 50.9184 32.9405 52.9913 33.7594 54.9182C34.0195 55.5318 33.7332 56.2401 33.1197 56.5005C32.9708 56.5649 32.8101 56.5977 32.6478 56.5973Z"
            fill="#F3D55B" />
        <path
            d="M53.5873 66.0484C52.9945 66.05 52.4884 65.6209 52.3928 65.0359C52.2974 64.4508 52.641 63.8831 53.2034 63.6962C59.5998 61.559 63.911 55.5686 63.9062 48.8248C63.9119 46.7311 63.4927 44.6582 62.6739 42.7313C62.4133 42.1177 62.6994 41.4091 63.3129 41.1485C63.9265 40.8879 64.6352 41.1739 64.8957 41.7875C65.8414 44.0129 66.326 46.407 66.3199 48.825C66.325 56.6062 61.3509 63.518 53.971 65.9847C53.8474 66.0263 53.7177 66.0479 53.5873 66.0484Z"
            fill="#F3D55B" />
        <path
            d="M49.424 47.6964V41.6956C51.4757 42.0421 53.0447 43.2259 53.0447 44.6006C53.0447 45.2671 53.585 45.8076 54.2517 45.8076C54.9183 45.8076 55.4586 45.2673 55.4586 44.6006C55.4586 41.8646 52.8891 39.6681 49.4241 39.2481V37.9628C49.4241 37.2963 48.8838 36.7559 48.2172 36.7559C47.5505 36.7559 47.0102 37.2962 47.0102 37.9628V39.2481C43.5452 39.6681 40.9757 41.8646 40.9757 44.6006C40.9757 47.3367 43.5452 49.5332 47.0102 49.9532V55.9539C44.9585 55.6075 43.3895 54.4236 43.3895 53.0489C43.3895 52.3824 42.8492 51.842 42.1825 51.842C41.516 51.842 40.9756 52.3823 40.9756 53.0489C40.9756 55.7849 43.5451 57.9814 47.0101 58.4014V59.6867C47.0101 60.3532 47.5504 60.8937 48.217 60.8937C48.8837 60.8937 49.424 60.3534 49.424 59.6867V58.4014C52.889 57.9814 55.4585 55.7849 55.4585 53.0489C55.4585 50.3129 52.889 48.1164 49.424 47.6964ZM43.3895 44.6006C43.3895 43.2259 44.9585 42.0421 47.0102 41.6956V47.5056C44.9585 47.1593 43.3895 45.9754 43.3895 44.6006ZM49.424 55.954V50.144C51.4757 50.4905 53.0447 51.6743 53.0447 53.049C53.0447 54.4237 51.4757 55.6076 49.424 55.954Z"
            fill="#B19046" />
        <path
            d="M38.9719 70.549C37.351 70.5485 35.7667 71.0318 34.4219 71.937L33.6857 72.4197C33.4914 72.5559 33.2591 72.6277 33.0219 72.6249C32.4927 72.6208 32.0277 72.2724 31.8754 71.7655C31.7231 71.2586 31.9187 70.7116 32.3581 70.4164L33.0823 69.9336C34.8222 68.76 36.8733 68.1337 38.972 68.1354H49.3996C49.3305 69.0544 48.9217 69.9149 48.253 70.5491L38.9719 70.549Z"
            fill="#F9C795" />
        <path
            d="M75.9752 13.8248H80.8027C82.1358 13.8248 83.2166 14.9055 83.2166 16.2386V39.1696C83.2166 40.5028 82.1358 41.5834 80.8028 41.5834H75.9753C74.6421 41.5834 73.5615 40.5028 73.5615 39.1696V16.2386C73.5614 14.9055 74.6421 13.8248 75.9752 13.8248Z"
            fill="#3B97D3" />
        <path
            d="M24.2477 29.1765L43.7392 17.3006C44.8801 16.6034 46.1918 16.2359 47.5289 16.2385H73.5616V39.1696H70.7616C69.6091 39.1743 68.4648 38.9742 67.3824 38.5781C66.3259 38.2127 65.3416 37.6654 64.4738 36.9609C63.5671 36.2272 62.5741 35.6071 61.5168 35.1143C60.4722 34.6283 59.3377 34.3653 58.1858 34.3419H52.4048C50.4009 34.3283 48.5581 33.2412 47.5773 31.4936C47.2025 30.903 47.0133 30.2135 47.0342 29.5143C47.1044 28.606 47.5136 27.7572 48.1808 27.1368C48.0665 27.1579 47.9535 27.186 47.8428 27.2213L44.4031 28.3678L35.1703 31.4575L26.6255 34.3178C25.4611 34.7017 24.1813 34.3043 23.4393 33.3281V33.3161C22.9576 32.6727 22.7708 31.8555 22.9248 31.0668C23.0786 30.2781 23.5593 29.5913 24.2477 29.1765Z"
            fill="#FDD7AD" />
        <path
            d="M57.4614 27.1007C59.0823 27.1011 60.6666 26.6179 62.0114 25.7127L62.7476 25.2299C62.9419 25.0938 63.1742 25.022 63.4114 25.0247C63.9406 25.0288 64.4056 25.3773 64.5579 25.8841C64.7102 26.3911 64.5145 26.9381 64.0751 27.2333L63.3509 27.716C61.6111 28.8896 59.56 29.5159 57.4612 29.5143H47.0337C47.1027 28.5953 47.5115 27.7348 48.1802 27.1005L57.4614 27.1007Z"
            fill="#F9C795" />
    </g>
    <defs>
        <clipPath id="clip0_6686_59660">
            <rect width="70" height="70" fill="white" transform="translate(13.2168 13.8248)" />
        </clipPath>
    </defs>
</svg>