<svg width="96" height="97" viewBox="0 0 96 97" fill="none" xmlns="http://www.w3.org/2000/svg">
    <rect y="0.391785" width="95.7835" height="95.7835" rx="8" fill="#F8EED2" />
    <path
        d="M58.0605 61.5168C58.0605 58.9498 58.0605 56.9941 58.0605 56.9941C65.1973 53.3924 70.0918 45.9943 70.0918 37.4543C70.0918 25.3727 60.2984 15.5793 48.2168 15.5793C36.1352 15.5793 26.3418 25.3727 26.3418 37.4543C26.3418 45.9943 31.2363 53.3924 38.373 56.9941V61.5168H58.0605Z"
        fill="#FFC239" />
    <path
        d="M48.2168 15.5793C41.9201 15.5793 36.2621 18.2546 32.271 22.5126C34.7735 38.3785 47.3079 50.9085 63.176 53.4033C67.4296 49.4133 70.0918 43.7466 70.0918 37.4543C70.0918 25.3727 60.2983 15.5793 48.2168 15.5793Z"
        fill="#FFD55D" />
    <path
        d="M64.0185 30.6427C65.3238 29.2277 64.0921 25.9684 61.2674 23.3628C58.4428 20.7572 55.0949 19.7921 53.7896 21.2071C52.4844 22.622 53.7161 25.8813 56.5407 28.4869C59.3654 31.0925 62.7133 32.0577 64.0185 30.6427Z"
        fill="#FFF7DF" />
    <path
        d="M46.0291 61.5168H43.8416V44.4696L40.8809 41.5088L42.4274 39.9623L45.7087 43.2435C45.9143 43.4481 46.0291 43.727 46.0291 44.0168V61.5168Z"
        fill="#F1F1F3" />
    <path
        d="M52.5918 61.5168H50.4043V44.0168C50.4043 43.727 50.5191 43.4481 50.7248 43.2435L54.006 39.9623L55.5526 41.5088L52.5918 44.4696V61.5168Z"
        fill="#F1F1F3" />
    <path
        d="M78.8035 26.7465C80.7832 25.6144 82.123 23.4871 82.123 21.048C82.123 17.4288 79.1798 14.4855 75.5605 14.4855C73.1171 14.4855 70.9854 15.8298 69.8566 17.816C64.0805 18.1704 56.2821 21.8826 48.219 27.9277C35.8946 18.6976 24.466 15.1582 19.7246 19.8996C16.4674 23.1568 16.9465 29.4535 21.0382 37.6719C20.2616 38.4616 19.7793 39.5423 19.7793 40.7355C19.7793 43.1483 21.7415 45.1105 24.1543 45.1105C26.5671 45.1105 28.5293 43.1483 28.5293 40.7355C28.5293 38.3227 26.5671 36.3605 24.1543 36.3605C23.7255 36.3605 23.3187 36.4415 22.926 36.5574C19.4523 29.5104 18.819 23.8983 21.2712 21.4462C24.7362 17.9823 34.7155 20.6598 46.4209 29.3058C43.3595 31.7208 40.2805 34.4541 37.2793 37.4543C25.7632 48.9715 18.1551 61.6404 17.641 70.0316C15.6548 71.1604 14.3105 73.2921 14.3105 75.7355C14.3105 79.3548 17.2538 82.298 20.873 82.298C23.3143 82.298 25.4449 80.9549 26.5748 78.9719C30.1437 78.7499 34.5952 77.2285 39.4799 74.5379L43.5782 72.5998L42.643 70.6223L38.4857 72.591C34.2507 74.9218 30.4455 76.324 27.3546 76.7123C27.4027 76.3918 27.4355 76.068 27.4355 75.7355C27.4355 72.1163 24.4923 69.173 20.873 69.173C20.5384 69.173 20.2113 69.2058 19.8898 69.2551C20.8654 61.4544 28.2548 49.573 38.8259 39.0019C41.8971 35.9307 45.0788 33.1405 48.2387 30.6851C51.2913 33.0662 54.4391 35.8344 57.6066 39.0019C62.0691 43.4644 66.0591 48.2616 69.2157 52.933C68.4085 53.726 67.9043 54.8285 67.9043 56.048C67.9043 58.4608 69.8665 60.423 72.2793 60.423C72.708 60.423 73.1149 60.3421 73.5076 60.2262C76.9813 67.2732 77.6135 72.8852 75.1624 75.3374C72.4445 78.0532 66.0088 77.0262 57.903 72.5669L54.7202 71.0029L53.7555 72.9662L56.8924 74.5062C62.3065 77.4866 67.0555 78.9993 70.7513 78.9993C73.2659 78.9993 75.2926 78.2982 76.7079 76.8829C79.9651 73.6257 79.486 67.329 75.3943 59.1105C76.172 58.3219 76.6543 57.2413 76.6543 56.048C76.6543 53.6352 74.6921 51.673 72.2793 51.673C71.8768 51.673 71.494 51.7452 71.1232 51.848C70.3521 50.7007 69.5351 49.5479 68.6699 48.3929C74.8015 40.1996 78.4513 32.3979 78.8035 26.7465ZM26.3418 40.7355C26.3418 41.9419 25.3607 42.923 24.1543 42.923C22.9479 42.923 21.9668 41.9419 21.9668 40.7355C21.9668 39.5291 22.9479 38.548 24.1543 38.548C25.3607 38.548 26.3418 39.5291 26.3418 40.7355ZM25.248 75.7355C25.248 78.1483 23.2859 80.1105 20.873 80.1105C18.4602 80.1105 16.498 78.1483 16.498 75.7355C16.498 73.3227 18.4602 71.3605 20.873 71.3605C23.2859 71.3605 25.248 73.3227 25.248 75.7355ZM74.4668 56.048C74.4668 57.2544 73.4857 58.2355 72.2793 58.2355C71.0729 58.2355 70.0918 57.2544 70.0918 56.048C70.0918 54.8416 71.0729 53.8605 72.2793 53.8605C73.4857 53.8605 74.4668 54.8416 74.4668 56.048ZM75.5605 16.673C77.9734 16.673 79.9355 18.6352 79.9355 21.048C79.9355 23.4608 77.9734 25.423 75.5605 25.423C73.1477 25.423 71.1855 23.4608 71.1855 21.048C71.1855 18.6352 73.1477 16.673 75.5605 16.673ZM50.0357 29.3212C57.1232 24.0963 63.9755 20.7035 69.0801 20.0658C69.0309 20.3863 68.998 20.7133 68.998 21.048C68.998 24.6673 71.9413 27.6105 75.5605 27.6105C75.8909 27.6105 76.2135 27.5777 76.5318 27.5307C75.892 32.5346 72.5451 39.4515 67.2863 46.5893C64.8385 43.4841 62.0954 40.3965 59.1543 37.4543C56.1345 34.4355 53.0665 31.7121 50.0357 29.3212Z"
        fill="#5490F5" />
    <path d="M38.373 65.8918V69.173H58.0605C58.0605 68.1526 58.0605 67.0304 58.0605 65.8918H38.373Z"
        fill="#393A3A" />
    <path
        d="M55.873 73.548C55.873 77.7765 52.4452 81.2043 48.2168 81.2043C43.9884 81.2043 40.5605 77.7765 40.5605 73.548H55.873Z"
        fill="#393A3A" />
    <path
        d="M59.1543 65.8918H37.2793C36.6755 65.8918 36.1855 65.4018 36.1855 64.798V62.6105C36.1855 62.0068 36.6755 61.5168 37.2793 61.5168H59.1543C59.758 61.5168 60.248 62.0068 60.248 62.6105V64.798C60.248 65.4018 59.758 65.8918 59.1543 65.8918Z"
        fill="#D5D6D8" />
    <path
        d="M59.1543 61.5168H38.373V62.6105C38.373 63.8191 39.352 64.798 40.5605 64.798H60.248V62.6105C60.248 62.0068 59.758 61.5168 59.1543 61.5168Z"
        fill="#F1F1F3" />
    <path
        d="M59.1543 73.548H37.2793C36.6755 73.548 36.1855 73.058 36.1855 72.4543V70.2668C36.1855 69.663 36.6755 69.173 37.2793 69.173H59.1543C59.758 69.173 60.248 69.663 60.248 70.2668V72.4543C60.248 73.058 59.758 73.548 59.1543 73.548Z"
        fill="#D5D6D8" />
    <path
        d="M59.1543 69.173H38.373V70.2668C38.373 71.4754 39.352 72.4543 40.5605 72.4543H60.248V70.2668C60.248 69.663 59.758 69.173 59.1543 69.173Z"
        fill="#F1F1F3" />
    <path
        d="M75.5604 14.4855C73.1169 14.4855 70.9852 15.8298 69.8565 17.816C64.0804 18.1704 56.2819 21.8826 48.2188 27.9277C40.6194 22.2358 33.3668 18.7183 27.8062 17.9615C27.8871 18.7162 27.9844 19.4654 28.0916 20.2113C32.8538 21.0218 39.3146 24.0569 46.4218 29.3058C43.3593 31.7208 40.2804 34.4541 37.2791 37.4543C36.3593 38.3741 35.4755 39.3016 34.6071 40.2335C34.9658 40.9149 35.341 41.5854 35.7238 42.2504C36.7257 41.1577 37.7549 40.0716 38.8257 39.0008C41.8969 35.9296 45.0787 33.1394 48.2385 30.684C51.2912 33.0651 54.439 35.8333 57.6065 39.0008C62.069 43.4633 66.059 48.2605 69.2155 52.9319C68.4083 53.726 67.9041 54.8285 67.9041 56.048C67.9041 58.4608 69.8663 60.423 72.2791 60.423C72.7079 60.423 73.1147 60.3421 73.5074 60.2262C75.8874 65.0529 76.9319 69.2058 76.5666 72.1327C77.2819 72.2869 78.0038 72.4226 78.7279 72.5527C79.2135 69.1238 78.0968 64.541 75.3941 59.1127C76.1718 58.3219 76.6541 57.2413 76.6541 56.048C76.6541 53.6352 74.6919 51.673 72.2791 51.673C71.8766 51.673 71.4938 51.7452 71.123 51.848C70.3519 50.7007 69.5349 49.5479 68.6697 48.3929C74.8013 40.2007 78.4512 32.399 78.8033 26.7465C80.783 25.6144 82.1229 23.4871 82.1229 21.048C82.1229 17.4288 79.1796 14.4855 75.5604 14.4855ZM72.2791 53.8605C73.4855 53.8605 74.4666 54.8416 74.4666 56.048C74.4666 57.2544 73.4855 58.2355 72.2791 58.2355C71.0727 58.2355 70.0916 57.2544 70.0916 56.048C70.0916 54.8416 71.0727 53.8605 72.2791 53.8605ZM67.2862 46.5893C64.8383 43.4841 62.0952 40.3965 59.1541 37.4543C56.1343 34.4344 53.0674 31.7121 50.0366 29.3201C57.1241 24.0952 63.9765 20.7024 69.081 20.0648C69.0307 20.3863 68.9979 20.7133 68.9979 21.048C68.9979 24.6673 71.9412 27.6105 75.5604 27.6105C75.8907 27.6105 76.2133 27.5777 76.5316 27.5307C75.8918 32.5346 72.5449 39.4515 67.2862 46.5893ZM75.5604 25.423C73.1476 25.423 71.1854 23.4608 71.1854 21.048C71.1854 18.6352 73.1476 16.673 75.5604 16.673C77.9732 16.673 79.9354 18.6352 79.9354 21.048C79.9354 23.4608 77.9732 25.423 75.5604 25.423Z"
        fill="#81B4FC" />
</svg>