<svg width="96" height="97" viewBox="0 0 96 97" fill="none" xmlns="http://www.w3.org/2000/svg">
    <rect x="0.216797" y="0.608276" width="95.7835" height="95.7835" rx="8" fill="#FFF8F1" />
    <g clip-path="url(#clip0_6686_59708)">
        <mask id="mask0_6686_59708" style="mask-type:luminance" maskUnits="userSpaceOnUse" x="13"
            y="13" width="71" height="71">
            <path d="M13.2168 13.6083H83.2168V83.6083H13.2168V13.6083Z" fill="white" />
        </mask>
        <g mask="url(#mask0_6686_59708)">
            <path
                d="M63.2589 83.6082H19.237C17.0356 83.6082 15.251 81.8236 15.251 79.6223V17.5941C15.251 15.3928 17.0356 13.6082 19.237 13.6082H63.2589C65.4603 13.6082 67.2448 15.3928 67.2448 17.5941V79.6223C67.2448 81.8236 65.4603 83.6082 63.2589 83.6082Z"
                fill="#FFE8D2" />
            <path
                d="M61.5006 61.9791H24.5989C24.013 61.9791 23.5381 61.5044 23.5381 60.9188C23.5381 60.3331 24.013 59.8586 24.5989 59.8586H61.5006C62.0865 59.8586 62.5614 60.3331 62.5614 60.9188C62.5614 61.5044 62.0865 61.9791 61.5006 61.9791Z"
                fill="#E2A876" />
            <path
                d="M61.5006 67.6748H24.5989C24.013 67.6748 23.5381 67.2001 23.5381 66.6146C23.5381 66.029 24.013 65.5543 24.5989 65.5543H61.5006C62.0865 65.5543 62.5614 66.029 62.5614 66.6146C62.5614 67.2001 62.0865 67.6748 61.5006 67.6748Z"
                fill="#E2A876" />
            <path
                d="M61.5006 73.3707H24.5989C24.013 73.3707 23.5381 72.896 23.5381 72.3104C23.5381 71.7248 24.013 71.2502 24.5989 71.2502H61.5006C62.0865 71.2502 62.5614 71.7248 62.5614 72.3104C62.5614 72.896 62.0865 73.3707 61.5006 73.3707Z"
                fill="#E2A876" />
            <path
                d="M61.5006 79.0664H24.5989C24.013 79.0664 23.5381 78.5919 23.5381 78.0062C23.5381 77.4206 24.013 76.9459 24.5989 76.9459H61.5006C62.0865 76.9459 62.5614 77.4206 62.5614 78.0062C62.5614 78.5919 62.0865 79.0664 61.5006 79.0664Z"
                fill="#E2A876" />
            <path
                d="M61.5006 50.5875H24.5989C24.013 50.5875 23.5381 50.1128 23.5381 49.5271C23.5381 48.9416 24.013 48.4669 24.5989 48.4669H61.5006C62.0865 48.4669 62.5614 48.9416 62.5614 49.5271C62.5614 50.1128 62.0865 50.5875 61.5006 50.5875Z"
                fill="#E2A876" />
            <path
                d="M61.5006 56.2832H24.5989C24.013 56.2832 23.5381 55.8085 23.5381 55.2229C23.5381 54.6372 24.013 54.1626 24.5989 54.1626H61.5006C62.0865 54.1626 62.5614 54.6372 62.5614 55.2229C62.5614 55.8085 62.0865 56.2832 61.5006 56.2832Z"
                fill="#E2A876" />
            <path
                d="M21.7577 60.9187C21.7577 61.5043 21.2827 61.9791 20.697 61.9791C20.1112 61.9791 19.6362 61.5043 19.6362 60.9187C19.6362 60.3333 20.1112 59.8585 20.697 59.8585C21.2827 59.8585 21.7577 60.3333 21.7577 60.9187Z"
                fill="#E2A876" />
            <path
                d="M21.7577 49.5271C21.7577 50.1127 21.2827 50.5875 20.697 50.5875C20.1112 50.5875 19.6362 50.1127 19.6362 49.5271C19.6362 48.9417 20.1112 48.4669 20.697 48.4669C21.2827 48.4669 21.7577 48.9417 21.7577 49.5271Z"
                fill="#E2A876" />
            <path
                d="M21.7577 55.2229C21.7577 55.8085 21.2827 56.2832 20.697 56.2832C20.1112 56.2832 19.6362 55.8085 19.6362 55.2229C19.6362 54.6374 20.1112 54.1627 20.697 54.1627C21.2827 54.1627 21.7577 54.6374 21.7577 55.2229Z"
                fill="#E2A876" />
            <path
                d="M21.7577 66.6146C21.7577 67.2001 21.2827 67.6748 20.697 67.6748C20.1112 67.6748 19.6362 67.2001 19.6362 66.6146C19.6362 66.029 20.1112 65.5543 20.697 65.5543C21.2827 65.5543 21.7577 66.029 21.7577 66.6146Z"
                fill="#E2A876" />
            <path
                d="M21.7577 72.3104C21.7577 72.8958 21.2827 73.3707 20.697 73.3707C20.1112 73.3707 19.6362 72.8958 19.6362 72.3104C19.6362 71.7248 20.1112 71.25 20.697 71.25C21.2827 71.25 21.7577 71.7248 21.7577 72.3104Z"
                fill="#E2A876" />
            <path
                d="M21.7577 78.0062C21.7577 78.5917 21.2827 79.0664 20.697 79.0664C20.1112 79.0664 19.6362 78.5917 19.6362 78.0062C19.6362 77.4206 20.1112 76.9459 20.697 76.9459C21.2827 76.9459 21.7577 77.4206 21.7577 78.0062Z"
                fill="#E2A876" />
            <path
                d="M46.5104 42.8336H35.9354C34.3018 42.8336 33.0719 41.3465 33.3794 39.7432L33.7947 37.5736C33.9141 36.9514 34.1556 36.3711 34.4985 35.8615C35.0399 35.0493 35.8343 34.4146 36.7834 34.0699L41.253 32.4494L45.6881 34.0576C46.6422 34.4041 47.4394 35.0435 47.9817 35.8625V35.8634C48.3293 36.3854 48.5718 36.9792 48.6864 37.6167L49.0721 39.7737C49.3577 41.3685 48.1316 42.8336 46.5104 42.8336Z"
                fill="#B8B6FF" />
            <path d="M43.699 33.3425L41.1983 35.5245L38.6992 33.3425V29.9929H43.699V33.3425Z"
                fill="#ECBD83" />
            <path
                d="M45.1699 24.0843V26.9233C45.1699 29.1495 43.3472 31.0245 41.1204 30.9814C38.9625 30.94 37.2266 29.1785 37.2266 27.012V24.0843C37.2266 21.8918 39.0047 20.7476 41.1982 20.7476C43.3918 20.7476 45.1699 21.8918 45.1699 24.0843Z"
                fill="#F7D4AD" />
            <path
                d="M37.0698 39.0006V42.8336H35.9354C34.3018 42.8336 33.0719 41.3465 33.3794 39.7432L33.7947 37.5736C33.9141 36.9514 34.1556 36.3712 34.4984 35.8615C35.9661 36.1545 37.0698 37.4487 37.0698 39.0006Z"
                fill="#A09EEF" />
            <path
                d="M46.5103 42.8336H45.417V39.0006C45.417 37.4515 46.518 36.1583 47.9817 35.8634C48.3292 36.3854 48.5718 36.9792 48.6863 37.6167L49.072 39.7737C49.3576 41.3685 48.1315 42.8336 46.5103 42.8336Z"
                fill="#A09EEF" />
            <path
                d="M45.1699 23.8908C45.0212 24.0048 44.9106 24.0867 44.9106 24.0867C44.6292 24.2491 44.3236 24.3977 43.9962 24.5291C42.5068 25.1248 41.0506 25.1468 40.3463 24.6535C40.3463 24.6535 39.6108 24.105 39.3352 23.7547C39.0598 23.4043 38.1835 23.3157 37.4572 24.0867C37.3811 24.1672 37.3039 24.2203 37.2266 24.2514V24.0867C37.2266 21.8925 39.0055 20.1145 41.2006 20.1145C42.298 20.1145 43.292 20.5592 44.0101 21.2783C44.6868 21.9536 45.1203 22.8708 45.1699 23.8908Z"
                fill="#6E4848" />
            <path
                d="M71.1993 61.2624L67.594 58.4409C67.3889 58.2803 67.1006 58.2803 66.8955 58.4409L63.2903 61.2624C62.9185 61.5533 62.3745 61.2885 62.3745 60.8164V40.5876C62.3745 40.275 62.6283 40.0215 62.9411 40.0215H71.5486C71.8614 40.0215 72.115 40.275 72.115 40.5876V60.8164C72.115 61.2885 71.5712 61.5533 71.1993 61.2624Z"
                fill="#FF445C" />
            <path
                d="M81.1822 32.7685C81.1822 34.5467 79.2501 35.9277 78.6086 37.474C77.9436 39.0766 78.3072 41.4134 77.0988 42.621C75.8906 43.8285 73.5538 43.4635 71.9508 44.1278C70.4044 44.7686 69.0228 46.7004 67.2448 46.7004C65.4665 46.7004 64.0849 44.7686 62.5387 44.1278C60.9355 43.4635 58.5987 43.8285 57.3904 42.621C56.1821 41.4133 56.5459 39.0766 55.8807 37.4738C55.2392 35.9277 53.3071 34.5467 53.3071 32.7685C53.3071 30.9904 55.2392 29.6094 55.8807 28.0632C56.5459 26.4605 56.1822 24.1237 57.3905 22.916C58.5988 21.7085 60.9355 22.0736 62.5387 21.4092C64.0849 20.7684 65.4665 18.8367 67.2448 18.8367C69.0228 18.8367 70.4044 20.7684 71.9508 21.4092C73.5538 22.0736 75.8906 21.7085 77.0989 22.9162C78.3074 24.1238 77.9436 26.4606 78.6086 28.0632C79.2501 29.6094 81.1822 30.9904 81.1822 32.7685Z"
                fill="#FF8B59" />
            <path
                d="M67.4758 25.8781L69.7141 29.2202C69.7509 29.2751 69.8059 29.3151 69.8694 29.3331L73.741 30.4281C73.9315 30.4821 74.0063 30.7119 73.8838 30.8674L71.3956 34.028C71.3548 34.08 71.3338 34.1447 71.3363 34.2106L71.4907 38.2295C71.4983 38.4272 71.3025 38.5693 71.1169 38.5009L67.3408 37.1123C67.2788 37.0896 67.2108 37.0896 67.1486 37.1123L63.3726 38.5009C63.1869 38.5693 62.9911 38.4272 62.9988 38.2295L63.1531 34.2106C63.1556 34.1447 63.1347 34.08 63.0938 34.028L60.6057 30.8674C60.4832 30.7119 60.5579 30.4821 60.7485 30.4281L64.62 29.3331C64.6836 29.3151 64.7385 29.2751 64.7753 29.2202L67.0137 25.8781C67.1239 25.7138 67.3656 25.7138 67.4758 25.8781Z"
                fill="#FEE07D" />
        </g>
    </g>
    <defs>
        <clipPath id="clip0_6686_59708">
            <rect width="70" height="70" fill="white" transform="translate(13.2168 13.6083)" />
        </clipPath>
    </defs>
</svg>