<svg width="96" height="97" viewBox="0 0 96 97" fill="none" xmlns="http://www.w3.org/2000/svg">
    <rect y="0.608276" width="95.7835" height="95.7835" rx="8" fill="#F2E1D6" />
    <g clip-path="url(#clip0_6686_59765)">
        <path
            d="M55.3534 33.9244C54.1496 33.9244 53.1703 32.9451 53.1703 31.7413V23.8433C53.1703 22.9056 52.4073 22.1427 51.4695 22.1427H39.4459C38.5082 22.1427 37.7452 22.9056 37.7452 23.8433V31.7413C37.7452 32.9451 36.7658 33.9244 35.562 33.9244C34.3582 33.9244 33.3789 32.9451 33.3789 31.7413V23.8433C33.3789 20.4981 36.1004 17.7764 39.4458 17.7764H51.4694C54.8148 17.7764 57.5363 20.498 57.5363 23.8433V31.7413C57.5366 32.9451 56.5572 33.9244 55.3534 33.9244Z"
            fill="#365E7D" />
        <path
            d="M13.2168 39.3442V67.4297C13.2168 70.8895 16.0216 73.6941 19.4812 73.6941H64.0995C67.5594 73.6941 70.364 70.8894 70.364 67.4297V39.3442H13.2168Z"
            fill="#DDB7A0" />
        <path
            d="M71.4344 28.5789H62.5151C65.9749 28.5789 68.7796 31.3836 68.7796 34.8433V67.4297C68.7796 70.8895 65.9748 73.6941 62.5151 73.6941H71.4344C74.8942 73.6941 77.6988 70.8893 77.6988 67.4297V34.8433C77.6988 31.3835 74.8942 28.5789 71.4344 28.5789Z"
            fill="#D6A889" />
        <path
            d="M70.3641 49.8206V34.8433C70.3641 31.3835 67.5594 28.5789 64.0997 28.5789H19.4812C16.0214 28.5789 13.2168 31.3836 13.2168 34.8433V39.2001C13.2168 45.4695 18.299 50.5517 24.5684 50.5517H66.3472C67.7616 50.5517 69.1154 50.2931 70.3641 49.8206Z"
            fill="#CC9675" />
        <path
            d="M71.4344 28.5789H62.5151C65.9749 28.5789 68.7796 31.3836 68.7796 34.8433V50.2877C73.8796 49.1739 77.6988 44.6342 77.6988 39.2001V34.8433C77.6988 31.3835 74.8942 28.5789 71.4344 28.5789Z"
            fill="#C4845C" />
        <path
            d="M27.6266 58.3471C26.0098 58.3471 24.6992 57.0366 24.6992 55.4197V48.6163C24.6992 46.9995 26.0098 45.6889 27.6266 45.6889C29.2435 45.6889 30.5541 46.9995 30.5541 48.6163V55.4197C30.5541 57.0364 29.2433 58.3471 27.6266 58.3471Z"
            fill="#F4FBFF" />
        <path
            d="M24.6992 53.2289V55.4197C24.6992 57.0366 26.0098 58.3471 27.6266 58.3471C29.2435 58.3471 30.5541 57.0364 30.5541 55.4197V53.2289H24.6992Z"
            fill="#E4F6FF" />
        <path d="M55.7417 59.6717L58.7459 62.6759L52.4532 68.9686L49.449 65.9644L55.7417 59.6717Z"
            fill="#F4FBFF" />
        <path
            d="M51.7987 70.5358L47.8907 66.6278L46.6727 67.0627L39.9579 73.7775C38.6625 75.0729 38.6625 77.1731 39.9579 78.4685C41.2533 79.7639 43.3534 79.7639 44.6488 78.4685L51.3636 71.7537L51.7987 70.5358Z"
            fill="#407093" />
        <path
            d="M53.2634 68.0667L50.36 65.1633C49.8665 64.6696 49.0661 64.6696 48.5724 65.1633L46.6729 67.063L51.3638 71.754L53.2635 69.8543C53.7571 69.3606 53.7571 68.5602 53.2634 68.0667Z"
            fill="#4A80AA" />
        <path
            d="M66.7679 68.1077C75.8524 68.1077 83.2169 60.7432 83.2169 51.6586C83.2169 42.5741 75.8524 35.2096 66.7679 35.2096C57.6833 35.2096 50.3188 42.5741 50.3188 51.6586C50.3188 60.7432 57.6833 68.1077 66.7679 68.1077Z"
            fill="#E4F6FF" />
        <path
            d="M66.7679 63.2898C73.1917 63.2898 78.3991 58.0824 78.3991 51.6586C78.3991 45.2349 73.1917 40.0274 66.7679 40.0274C60.3442 40.0274 55.1367 45.2349 55.1367 51.6586C55.1367 58.0824 60.3442 63.2898 66.7679 63.2898Z"
            fill="#CBE2FF" />
        <path
            d="M74.9923 43.4342C71.563 40.0049 66.5257 39.1664 62.3081 40.9151C63.6769 41.4826 64.96 42.3211 66.0729 43.4342C70.6153 47.9764 70.6153 55.3409 66.0729 59.8832C64.9599 60.9962 63.6769 61.8347 62.3081 62.4023C66.5257 64.151 71.563 63.3125 74.9923 59.8832C79.5345 55.3409 79.5345 47.9764 74.9923 43.4342Z"
            fill="#BED8FB" />
    </g>
    <defs>
        <clipPath id="clip0_6686_59765">
            <rect width="70" height="70" fill="white" transform="translate(13.2168 13.6083)" />
        </clipPath>
    </defs>
</svg>