<svg width="96" height="97" viewBox="0 0 96 97" fill="none" xmlns="http://www.w3.org/2000/svg">
    <rect y="0.824829" width="95.7835" height="95.7835" rx="8" fill="#EEE9F7" />
    <g clip-path="url(#clip0_6686_59679)">
        <path
            d="M44.7188 38.6967V44.4498L40.3438 48.8248L35.9688 44.4498V38.6967C37.2513 39.5937 38.7786 40.0748 40.3438 40.0748C41.9089 40.0748 43.4362 39.5937 44.7188 38.6967Z"
            fill="#EFAEAC" />
        <path
            d="M81.8623 42.9186L81.8514 42.9076C81.6018 42.6418 81.2961 42.4349 80.9565 42.302C80.6169 42.1691 80.252 42.1136 79.8882 42.1394C79.5245 42.1652 79.1711 42.2718 78.8537 42.4514C78.5363 42.6309 78.2629 42.879 78.0534 43.1774L77.542 43.8592L78.0886 23.0662C78.1004 22.6418 78.2772 22.2387 78.5816 21.9427C78.8859 21.6467 79.2937 21.4811 79.7183 21.4811C80.1429 21.4811 80.5508 21.6468 80.8552 21.9429C81.1595 22.239 81.3363 22.6422 81.348 23.0667L81.8623 42.9186Z"
            fill="#FFD07B" />
        <path
            d="M81.8516 41.8139C81.5466 41.587 81.1999 41.4225 80.8312 41.3298C80.4625 41.2372 80.0792 41.2183 79.7032 41.2742C79.3272 41.3301 78.9659 41.4597 78.6401 41.6555C78.3143 41.8514 78.0304 42.1097 77.8047 42.4155L67.1516 56.9514L58.9375 49.9186L50.1875 46.6374L44.7188 43.3561L40.3438 47.7311L35.9688 43.3561L30.5 46.6374L26.0082 48.3218C24.7573 48.7908 23.6795 49.6305 22.9186 50.7285C22.1577 51.8265 21.75 53.1306 21.75 54.4664V82.7311H57.8438C58.1338 82.7311 58.412 82.6159 58.6171 82.4108C58.8223 82.2057 58.9375 81.9275 58.9375 81.6374V65.2311L67.7865 68.9894C68.0312 69.0934 68.3054 69.1046 68.5578 69.021C68.8102 68.9374 69.0236 68.7648 69.1579 68.5354L82.6063 45.5655C82.863 45.1236 82.9989 44.6219 83 44.1108C82.9997 43.6651 82.8958 43.2256 82.6965 42.827C82.4972 42.4284 82.2079 42.0816 81.8516 41.8139Z"
            fill="#DBEDFF" />
        <path
            d="M40.3438 77.2623L44.7188 73.9811L42.5313 53.1998L47.0069 44.7287L44.7188 43.3561L40.3438 47.7311L35.9688 43.3561L33.6807 44.7287L38.1563 53.1998L35.9688 73.9811L40.3438 77.2623Z"
            fill="#FF8086" />
        <path
            d="M44.7188 14.9186H35.9688C34.9836 14.92 34.0277 15.2531 33.2551 15.8643C32.4825 16.4755 31.9383 17.3291 31.7102 18.2874C30.4506 18.5179 29.3115 19.1824 28.491 20.1655C27.6705 21.1486 27.2203 22.3881 27.2188 23.6686V32.9655C27.2187 33.1091 27.247 33.2513 27.3019 33.3841C27.3569 33.5168 27.4374 33.6374 27.539 33.7389C27.6406 33.8405 27.7612 33.9211 27.8939 33.976C28.0266 34.031 28.1689 34.0592 28.3125 34.0592H52.375C52.5186 34.0592 52.6609 34.031 52.7936 33.976C52.9263 33.9211 53.0469 33.8405 53.1485 33.7389C53.2501 33.6374 53.3306 33.5168 53.3856 33.3841C53.4405 33.2513 53.4688 33.1091 53.4688 32.9655V23.6686C53.4661 21.3487 52.5434 19.1247 50.903 17.4843C49.2626 15.844 47.0386 14.9212 44.7188 14.9186Z"
            fill="#414151" />
        <path
            d="M35.9688 73.9811L40.3438 77.2623L44.7188 73.9811L42.5312 53.1998H38.1562L35.9688 73.9811Z"
            fill="#EA6060" />
        <path
            d="M81.8516 41.8139C81.5466 41.587 81.1999 41.4225 80.8312 41.3298C80.4625 41.2372 80.0792 41.2183 79.7032 41.2742C79.3272 41.3301 78.9659 41.4597 78.6401 41.6555C78.3143 41.8514 78.0304 42.1097 77.8047 42.4155L67.1516 56.9514L58.9375 49.9186L50.1875 46.6374V82.7311H57.8438C58.1338 82.7311 58.412 82.6159 58.6171 82.4108C58.8223 82.2057 58.9375 81.9275 58.9375 81.6374V65.2311L67.7865 68.9894C68.0312 69.0934 68.3054 69.1046 68.5578 69.021C68.8102 68.9374 69.0236 68.7648 69.1579 68.5354L82.6063 45.5655C82.863 45.1236 82.9989 44.6219 83 44.1108C82.9997 43.6651 82.8958 43.2256 82.6965 42.827C82.4972 42.4284 82.2079 42.0816 81.8516 41.8139Z"
            fill="#676072" />
        <path
            d="M30.5 46.6373L26.0082 48.3217C24.7574 48.7908 23.6795 49.6304 22.9186 50.7284C22.1577 51.8264 21.75 53.1305 21.75 54.4664V82.7311H30.5V46.6373Z"
            fill="#676072" />
        <path
            d="M49.0938 29.1373C48.6086 29.1346 48.1261 29.2077 47.6636 29.3542C47.4435 29.4253 47.2517 29.5644 47.1156 29.7514C46.9796 29.9385 46.9063 30.1638 46.9063 30.395V32.4186C46.9098 33.269 46.7449 34.1118 46.4213 34.8982C46.3154 35.1536 46.3101 35.4397 46.4067 35.6988C46.5032 35.958 46.6943 36.1709 46.9415 36.2948C47.6107 36.6252 48.3474 36.7959 49.0938 36.7936C50.1801 36.86 51.2488 36.4952 52.0679 35.7785C52.887 35.0618 53.3904 34.051 53.4688 32.9655C53.3904 31.8799 52.887 30.8691 52.0679 30.1524C51.2488 29.4357 50.1801 29.071 49.0938 29.1373Z"
            fill="#EFAEAC" />
        <path
            d="M33.7812 32.4186V30.395C33.7812 30.1638 33.7079 29.9385 33.5719 29.7514C33.4358 29.5644 33.244 29.4253 33.024 29.3542C32.5614 29.2077 32.0789 29.1346 31.5938 29.1373C30.5074 29.071 29.4387 29.4357 28.6196 30.1524C27.8005 30.8691 27.2972 31.8799 27.2188 32.9655C27.2972 34.051 27.8005 35.0618 28.6196 35.7785C29.4387 36.4952 30.5074 36.86 31.5938 36.7936C32.34 36.7957 33.0766 36.6252 33.746 36.2953C33.9936 36.1714 34.1851 35.9583 34.2818 35.6988C34.3785 35.4394 34.3733 35.1529 34.2672 34.8971C33.9426 34.1113 33.7774 33.2688 33.7812 32.4186Z"
            fill="#EFAEAC" />
        <path
            d="M27.2188 76.1686C27.2171 76.7482 26.9861 77.3036 26.5762 77.7135C26.1663 78.1234 25.6109 78.3544 25.0313 78.3561V82.7311H15.1875C14.9003 82.7326 14.6157 82.6762 14.3508 82.5654C14.0858 82.4545 13.8459 82.2914 13.6453 82.0858C13.4397 81.8852 13.2766 81.6453 13.1657 81.3804C13.0549 81.1154 12.9985 80.8308 13 80.5436C13.0017 79.9639 13.2327 79.4085 13.6426 78.9987C14.0525 78.5888 14.6079 78.3578 15.1875 78.3561V73.9811C14.9003 73.9826 14.6157 73.9262 14.3508 73.8154C14.0858 73.7045 13.8459 73.5414 13.6453 73.3358C13.4397 73.1352 13.2766 72.8953 13.1657 72.6304C13.0549 72.3654 12.9985 72.0808 13 71.7936C13.0017 71.2139 13.2327 70.6585 13.6426 70.2487C14.0525 69.8388 14.6079 69.6078 15.1875 69.6061H25.0313V73.9811C25.6102 73.9852 26.1641 74.2171 26.5735 74.6264C26.9828 75.0357 27.2146 75.5897 27.2188 76.1686Z"
            fill="#FFD07B" />
        <path
            d="M15.1875 78.3561C14.6073 78.3561 14.0509 78.5865 13.6407 78.9968C13.2305 79.407 13 79.9634 13 80.5436C13 81.1237 13.2305 81.6801 13.6407 82.0904C14.0509 82.5006 14.6073 82.7311 15.1875 82.7311H25.0312V78.3561H15.1875Z"
            fill="#FF8086" />
        <path
            d="M15.1875 69.6061C14.6073 69.6061 14.0509 69.8365 13.6407 70.2468C13.2305 70.657 13 71.2134 13 71.7936C13 72.3737 13.2305 72.9301 13.6407 73.3404C14.0509 73.7506 14.6073 73.9811 15.1875 73.9811H25.0312V69.6061H15.1875Z"
            fill="#C99AE8" />
        <path
            d="M81.8514 41.8139C81.5465 41.587 81.1997 41.4225 80.8311 41.3298C80.4624 41.2372 80.079 41.2183 79.703 41.2742C79.327 41.3301 78.9658 41.4597 78.64 41.6555C78.3142 41.8514 78.0303 42.1097 77.8046 42.4155L75.645 45.3621L75.6456 45.3669L80.5631 49.0549L82.6061 45.5655C82.8629 45.1236 82.9987 44.6219 82.9999 44.1108C82.9996 43.6651 82.8957 43.2256 82.6964 42.827C82.4971 42.4284 82.2078 42.0816 81.8514 41.8139Z"
            fill="#EFAEAC" />
        <path d="M45.8125 51.0123L40.3438 47.7311L44.7188 43.3561L50.1875 46.6373L45.8125 51.0123Z"
            fill="#BBD5EF" />
        <path d="M34.875 51.0123L40.3438 47.7311L35.9688 43.3561L30.5 46.6373L34.875 51.0123Z"
            fill="#BBD5EF" />
        <path
            d="M48 25.8561C40.849 25.8561 37.6938 23.8684 37.6692 23.8524C37.5451 23.7697 37.4055 23.7132 37.2588 23.6864C37.1121 23.6597 36.9615 23.6632 36.8162 23.6968C36.6709 23.7305 36.5341 23.7934 36.4141 23.8819C36.294 23.9704 36.1934 24.0825 36.1183 24.2113C35.1805 25.8182 32.7078 25.8561 32.6875 25.8561C32.5439 25.8561 32.4016 25.8844 32.2689 25.9393C32.1362 25.9943 32.0156 26.0748 31.914 26.1764C31.8124 26.278 31.7319 26.3986 31.6769 26.5313C31.622 26.664 31.5937 26.8062 31.5938 26.9499V32.4186C31.5938 34.7393 32.5156 36.9649 34.1566 38.6058C35.7975 40.2468 38.0231 41.1686 40.3438 41.1686C42.6644 41.1686 44.89 40.2468 46.5309 38.6058C48.1719 36.9649 49.0938 34.7393 49.0938 32.4186V26.9499C49.0938 26.8062 49.0655 26.664 49.0106 26.5313C48.9556 26.3986 48.8751 26.278 48.7735 26.1764C48.6719 26.0748 48.5513 25.9943 48.4186 25.9393C48.2859 25.8844 48.1436 25.8561 48 25.8561Z"
            fill="#FFD3CA" />
        <path
            d="M61.125 61.9498V66.1608L58.9375 65.2311V61.9498C58.9375 61.6597 59.0527 61.3815 59.2579 61.1764C59.463 60.9713 59.7412 60.8561 60.0312 60.8561C60.3213 60.8561 60.5995 60.9713 60.8046 61.1764C61.0098 61.3815 61.125 61.6597 61.125 61.9498Z"
            fill="#4D4B5E" />
        <path
            d="M67.1516 56.9514L65.4891 59.2154C65.3878 59.3527 65.2561 59.4647 65.1043 59.5425C64.9525 59.6203 64.7847 59.6618 64.6141 59.6639C64.3778 59.6617 64.1482 59.5852 63.9579 59.4451C63.7246 59.2724 63.5694 59.0141 63.5263 58.727C63.4832 58.4399 63.5558 58.1475 63.7282 57.9139L65.4782 55.5186L67.1516 56.9514Z"
            fill="#4D4B5E" />
    </g>
    <defs>
        <clipPath id="clip0_6686_59679">
            <rect width="70" height="70" fill="white" transform="translate(13 13.8248)" />
        </clipPath>
    </defs>
</svg>